# xmcd
#
# Track frame offsets:
# 150
# 17521
# 30147
# 50087
# 71970
# 87803
# 116854
# 132456
# 154683
# 176189
#
# Disc length: 2553 seconds
#
#
# Revision: 0
# Processed by: cddbd v1.4PL0 Copyright (c) Steve Scherf et al.
# Submitted via: FreeRIP 2.30 
#
DISCID=8509f70a
DTITLE=Bryce Janey - Sweet Baby Jane
DYEAR=1998
DGENRE=Blues
TTITLE0=You got to Tell Me
TTITLE1=Struck By Lightning
TTITLE2=Walk Away
TTITLE3=Long Time Running
TTITLE4=Success Overnight
TTITLE5=That's What You Got
TTITLE6=Tears I Had to Cry
TTITLE7=Say It Ain't Nothin
TTITLE8=Sweet Bady Jane
TTITLE9=Love In Vain
EXTD=BB Productions bb@bearhead.net
EXTT0=
EXTT1=
EXTT2=
EXTT3=
EXTT4=
EXTT5=
EXTT6=
EXTT7=
EXTT8=
EXTT9=
PLAYORDER=
